When American diplomat William Gridley (Lemmon) arrives in London, he rents part of Carly Hardwicke's (Novak) house from her and promptly begins to fall in love. Gridley doesn't know that many people think she killed her husband, as he has disappeared, but without a body, the police can do nothing.

The Notorious Landlady (1962) Broadcast to h264 AVC -Classic-.mp4
Format                           : MPEG-4
Format profile                   : Nero Digital AVC HDTV Profile
Codec ID                         : ndxh
File size                        : 1.27 GiB
Duration                         : 2h 2mn
Overall bit rate                 : 1 475 Kbps
Encoded date                     : UTC 2010-08-30 22:42:47
Tagged date                      : UTC 2010-08-31 06:05:02

Video
ID                               : 1
Format                           : AVC
Format/Info                      : Advanced Video Codec
Format profile                   : High@L2.0
Format settings, CABAC           : Yes
Format settings, ReFrames        : 2 frames
Codec ID                         : avc1
Codec ID/Info                    : Advanced Video Coding
Duration                         : 2h 2mn
Bit rate mode                    : Variable
Bit rate                         : 1 343 Kbps
Maximum bit rate                 : 2 991 Kbps
Width                            : 336 pixels
Height                           : 248 pixels
Display aspect ratio             : 4:3
Frame rate mode                  : Constant
Frame rate                       : 29.970 fps
Standard                         : NTSC
Resolution                       : 24 bits
Colorimetry                      : 4:2:0
Scan type                        : Progressive
Bits/(Pixel*Frame)               : 0.538
Stream size                      : 1.15 GiB (91%)
Language                         : English
Encoded date                     : UTC 2010-08-30 22:42:47
Tagged date                      : UTC 2010-08-31 06:05:02

Audio
ID                               : 2
Format                           : AAC
Format/Info                      : Advanced Audio Codec
Format version                   : Version 4
Format profile                   : LC
Format settings, SBR             : Yes
Format settings, PS              : No
Codec ID                         : 40
Duration                         : 2h 2mn
Bit rate mode                    : Variable
Bit rate                         : 129 Kbps
Maximum bit rate                 : 156 Kbps
Channel(s)                       : 2 channels
Channel positions                : L R
Sampling rate                    : 48.0 KHz
Resolution                       : 16 bits
Stream size                      : 113 MiB (9%)
Language                         : English